<svg width="24" height="24" viewBox="0 0 24 24" fill="none" xmlns="http://www.w3.org/2000/svg">
<rect width="24" height="24" rx="12" fill="white" fill-opacity="0.05"/>
<path fill-rule="evenodd" clip-rule="evenodd" d="M6.66283 12.11C7.79827 13.3716 9.53146 14.6001 11.9997 14.6001C14.468 14.6001 16.2012 13.3716 17.3367 12.11C17.9047 11.4788 18.3164 10.8458 18.5857 10.3705C18.7201 10.1334 18.8182 9.93706 18.8819 9.80186C18.9138 9.7343 18.937 9.68214 18.9518 9.64795C18.9592 9.63086 18.9645 9.61827 18.9677 9.61051L18.971 9.60253L18.9714 9.60168C18.9713 9.60185 18.9712 9.60204 19.4664 9.80011C19.9616 9.99819 19.9615 9.99842 19.9614 9.99867L19.9612 9.99927L19.9605 10.0008L19.9587 10.0054L19.9525 10.0203C19.9474 10.0327 19.94 10.0501 19.9305 10.0721C19.9115 10.116 19.8836 10.1784 19.8467 10.2567C19.773 10.4132 19.6627 10.6335 19.5138 10.8964C19.2164 11.4211 18.7614 12.1214 18.1295 12.8236C17.9344 13.0403 17.7219 13.2578 17.4913 13.4708L19.3102 15.2897L18.556 16.0439L16.6628 14.1507C15.5878 14.9297 14.2211 15.5421 12.5331 15.6499L12.5331 17.8001L11.4664 17.8001L11.4664 15.6499C9.77837 15.5421 8.4117 14.9297 7.33669 14.1508L5.44354 16.0439L4.68929 15.2897L6.50819 13.4708C6.27763 13.2578 6.06506 13.0403 5.86999 12.8236C5.23808 12.1214 4.78309 11.4211 4.48574 10.8964C4.33676 10.6335 4.22652 10.4132 4.15275 10.2567C4.11585 10.1784 4.08802 10.116 4.06898 10.0721C4.05946 10.0501 4.05213 10.0327 4.04697 10.0203L4.04083 10.0054L4.03896 10.0008L4.03833 9.99927L4.03809 9.99867C4.03799 9.99842 4.0379 9.99819 4.53309 9.80011C5.02827 9.60204 5.0282 9.60185 5.02813 9.60168L5.02804 9.60145L5.02848 9.60253L5.03177 9.61051C5.035 9.61828 5.0403 9.63086 5.04771 9.64795C5.06252 9.68214 5.08573 9.7343 5.11758 9.80186C5.18132 9.93706 5.27941 10.1334 5.41376 10.3705C5.68307 10.8458 6.09474 11.4788 6.66283 12.11ZM5.02799 9.60133C5.02797 9.60129 5.02799 9.60133 5.02804 9.60145L5.02799 9.60133Z" fill="#FF868E"/>
</svg>
